<svg xmlns="http://www.w3.org/2000/svg" viewBox="0 0 42.3 60"><defs><style>.cls-1{fill:#5efbfb;}</style></defs><g id="Capa_2" data-name="Capa 2"><g id="Capa_1-2" data-name="Capa 1"><path class="cls-1" d="M0,11.65,3.85,55.09,21.11,60l17.35-4.91L42.3,11.65ZM32,47.42,21.15,50.5h0l-11-3.42-.59-7.77h5.26l.38,4.25,5.95,1.63h0L27,43.57l.73-7.09H15.3l-.49-5.19H28.19l.51-5.47H8.31l-.43-5.28H34.43Z"/><polygon class="cls-1" points="26.72 8.16 26.72 6.43 30.91 6.43 30.91 4.88 26.72 4.88 26.72 0 32.91 0 32.91 1.6 28.71 1.6 28.71 3.15 32.91 3.15 32.91 8.16 26.72 8.16"/><polygon class="cls-1" points="18.06 8.16 18.06 6.43 22.26 6.43 22.26 4.88 18.06 4.88 18.06 0 24.25 0 24.25 1.6 20.05 1.6 20.05 3.15 24.25 3.15 24.25 8.16 18.06 8.16"/><polygon class="cls-1" points="9.4 8.03 9.4 0 15.59 0 15.59 1.99 11.39 1.99 11.39 6.04 15.59 6.04 15.59 8.03 9.4 8.03"/></g></g></svg>