<svg xmlns="http://www.w3.org/2000/svg" viewBox="0 0 186.7 37"><defs><style>.cls-1{fill:#5efbfb;}</style></defs><g id="Capa_2" data-name="Capa 2"><g id="Capa_1-2" data-name="Capa 1"><path class="cls-1" d="M0,36.5V1H24.1V8.2H8.2v7.65H21.3V22.5H8.2v14Z"/><path class="cls-1" d="M27.7,0h8V27.15q0,3,2.55,3A5.62,5.62,0,0,0,39.58,30a4.78,4.78,0,0,0,1.32-.52l1.05,6a15.54,15.54,0,0,1-3.45,1.1,18,18,0,0,1-3.65.4,7.29,7.29,0,0,1-5.3-1.8A6.94,6.94,0,0,1,27.7,30Z"/><path class="cls-1" d="M57.1,37a15.47,15.47,0,0,1-5.93-1.08A13.15,13.15,0,0,1,46.72,33,12.53,12.53,0,0,1,44,28.72a13.79,13.79,0,0,1-1-5.07,15.17,15.17,0,0,1,1-5.37,13,13,0,0,1,2.75-4.43,12.77,12.77,0,0,1,4.43-3,15.39,15.39,0,0,1,6-1.1,15.21,15.21,0,0,1,5.95,1.1,13.07,13.07,0,0,1,4.4,3,12.51,12.51,0,0,1,2.72,4.32,14.38,14.38,0,0,1,.93,5.15c0,.47,0,.92,0,1.37a8.37,8.37,0,0,1-.15,1.18H51.5a5.39,5.39,0,0,0,1.92,4,6.19,6.19,0,0,0,3.93,1.37,7.11,7.11,0,0,0,3.37-.85,4.34,4.34,0,0,0,2.18-2.3L69.7,30a12.17,12.17,0,0,1-4.8,5A14.9,14.9,0,0,1,57.1,37Zm5.55-16.1A6,6,0,0,0,60.85,17,5.41,5.41,0,0,0,57,15.5,5.33,5.33,0,0,0,53.13,17a6.16,6.16,0,0,0-1.78,3.93Z"/><path class="cls-1" d="M79.35,10.25l4.75,7.4.5,1,.5-1,4.7-7.4H98L88.9,23.4l9.3,13.1H90l-5-7.35-.45-.95-.45.95-5,7.35H71l9.3-13.1L71.2,10.25Z"/><path class="cls-1" d="M116.65,37a10.37,10.37,0,0,1-5.25-1.28,9.16,9.16,0,0,1-3.55-3.57V36.5H100.9V0h8V14.55A9.46,9.46,0,0,1,112.37,11a10.64,10.64,0,0,1,9.73-.2,11,11,0,0,1,3.6,2.92,13.91,13.91,0,0,1,2.35,4.38,16.6,16.6,0,0,1,.85,5.37,15.08,15.08,0,0,1-.93,5.33,13.27,13.27,0,0,1-2.57,4.3A11.81,11.81,0,0,1,121.5,36,11.47,11.47,0,0,1,116.65,37Zm-2.25-6.75a6,6,0,0,0,4.52-1.95,6.55,6.55,0,0,0,1.3-2.13,7.21,7.21,0,0,0,.48-2.67,7.92,7.92,0,0,0-.45-2.67A7.17,7.17,0,0,0,119,18.6a5.69,5.69,0,0,0-1.87-1.5,5.14,5.14,0,0,0-2.35-.55,5.32,5.32,0,0,0-3.48,1.3,8.54,8.54,0,0,0-2.42,3.25v5.5a6.31,6.31,0,0,0,2.32,2.68A5.91,5.91,0,0,0,114.4,30.25Z"/><path class="cls-1" d="M145.4,37a15.44,15.44,0,0,1-6-1.1,13,13,0,0,1-4.42-3,12.67,12.67,0,0,1-2.73-4.34,15,15,0,0,1,0-10.36A12.67,12.67,0,0,1,135,13.88a13.29,13.29,0,0,1,4.42-3,15.08,15.08,0,0,1,6-1.13,14.86,14.86,0,0,1,5.95,1.13,13.41,13.41,0,0,1,4.4,3,12.88,12.88,0,0,1,2.75,4.34,14.46,14.46,0,0,1,.95,5.18,14.66,14.66,0,0,1-.93,5.18,12.5,12.5,0,0,1-2.72,4.34,13,13,0,0,1-4.43,3A15.39,15.39,0,0,1,145.4,37Zm-5.85-13.6a7.26,7.26,0,0,0,1.65,5,5.47,5.47,0,0,0,8.32,0,6.59,6.59,0,0,0,1.23-2.18,8.21,8.21,0,0,0,.45-2.77,7.26,7.26,0,0,0-1.65-5,5.3,5.3,0,0,0-4.15-1.87,5.43,5.43,0,0,0-4.18,1.9A6.86,6.86,0,0,0,140,20.63,8.21,8.21,0,0,0,139.55,23.4Z"/><path class="cls-1" d="M167.85,10.25l4.75,7.4.5,1,.5-1,4.7-7.4h8.2L177.4,23.4l9.3,13.1h-8.2l-4.95-7.35-.45-.95-.45.95-5,7.35h-8.2l9.3-13.1-9.1-13.15Z"/></g></g></svg>